<?xml version="1.0" standalone="no"?>
<!DOCTYPE svg PUBLIC "-//W3C//DTD SVG 20010904//EN"
 "http://www.w3.org/TR/2001/REC-SVG-20010904/DTD/svg10.dtd">
<svg version="1.0" xmlns="http://www.w3.org/2000/svg"
 width="900.000000pt" height="900.000000pt" viewBox="0 0 900.000000 900.000000"
 preserveAspectRatio="xMidYMid meet">
<metadata>
Created by potrace 1.10, written by Peter Selinger 2001-2011
</metadata>
<g transform="translate(0.000000,900.000000) scale(0.100000,-0.100000)"
fill="#000000" stroke="none">
<path d="M8865 8830 c-16 -4 -61 -15 -100 -24 -38 -10 -95 -23 -125 -31 -30
-7 -86 -21 -125 -30 -74 -17 -142 -34 -240 -59 -33 -8 -91 -22 -130 -31 -74
-17 -142 -34 -240 -59 -33 -8 -91 -22 -130 -31 -74 -17 -142 -34 -240 -59 -33
-8 -91 -22 -130 -31 -82 -19 -116 -28 -370 -91 -33 -8 -87 -21 -120 -29 -33
-7 -87 -20 -120 -29 -33 -8 -91 -22 -130 -31 -38 -9 -95 -23 -125 -30 -30 -8
-82 -21 -115 -29 -33 -8 -91 -22 -130 -31 -74 -17 -142 -34 -240 -59 -33 -8
-91 -22 -130 -31 -96 -23 -179 -43 -245 -59 -30 -8 -86 -22 -125 -31 -95 -23
-179 -43 -245 -60 -30 -7 -86 -21 -125 -30 -84 -20 -193 -46 -370 -91 -33 -8
-84 -19 -114 -25 -30 -5 -59 -13 -64 -16 -6 -3 -35 -12 -66 -19 -126 -29 -229
-53 -366 -88 -33 -8 -91 -22 -130 -31 -84 -20 -193 -46 -370 -91 -33 -8 -84
-19 -114 -25 -30 -5 -59 -13 -64 -16 -6 -3 -35 -12 -66 -19 -97 -22 -266 -62
-371 -88 -30 -8 -86 -22 -125 -31 -78 -18 -150 -36 -240 -59 -33 -8 -91 -22
-130 -31 -74 -17 -142 -34 -240 -59 -33 -8 -91 -22 -130 -31 -82 -20 -169 -41
-245 -60 -30 -7 -86 -21 -125 -30 -84 -20 -193 -46 -370 -91 -33 -8 -84 -19
-114 -25 -30 -5 -58 -12 -63 -16 -6 -3 -35 -11 -66 -18 -64 -15 -170 -40 -252
-60 -30 -8 -82 -21 -115 -29 -33 -8 -91 -22 -130 -31 -74 -17 -142 -34 -240
-59 -33 -8 -91 -22 -130 -31 -38 -9 -97 -23 -130 -31 -33 -8 -86 -20 -117 -27
-32 -8 -61 -16 -64 -19 -5 -6 -6 -6539 0 -6545 3 -3 60 8 151 30 33 9 92 23
130 32 130 31 190 46 245 59 30 8 87 22 125 31 130 31 190 46 245 59 30 8 87
22 125 31 130 31 190 46 245 59 30 8 87 22 125 31 128 31 190 46 250 61 33 8
87 21 120 29 57 13 115 27 250 61 33 8 87 21 120 29 57 13 115 27 250 61 33 8
87 21 120 29 57 13 115 27 250 61 33 8 87 21 120 29 33 7 87 20 120 29 33 8
92 22 130 31 75 18 148 36 248 61 34 8 83 19 109 24 27 5 52 11 57 14 5 3 40
13 77 21 38 9 96 23 129 31 33 8 87 21 120 29 33 7 87 20 120 29 33 8 92 22
130 31 72 17 141 34 243 59 31 8 89 22 127 31 39 9 95 23 125 30 30 8 82 21
115 29 33 8 92 22 130 31 74 17 142 34 240 59 33 8 92 22 130 31 96 23 179 43
245 59 30 8 87 22 125 31 87 21 161 38 245 59 36 9 92 23 125 30 33 8 87 21
120 29 33 8 92 23 130 32 130 31 190 46 245 59 30 8 87 22 125 31 128 31 190
46 250 61 33 8 87 21 120 29 58 13 130 31 245 59 30 8 87 22 125 31 128 31
190 46 250 61 33 8 87 21 120 29 57 13 115 27 250 61 33 8 87 21 120 29 57 13
115 27 250 61 33 8 87 21 120 29 64 15 153 36 250 61 33 8 86 20 118 26 48 9
57 14 57 32 1 11 1 1481 0 3266 0 1785 0 3251 0 3258 0 13 -10 14 -55 2z
m-457 -682 c9 -9 12 -297 12 -1234 0 -672 -3 -1229 -6 -1238 -7 -19 -106 -22
-195 -6 -30 5 -115 14 -189 20 -74 6 -202 17 -285 25 -82 7 -204 18 -270 24
-66 7 -160 16 -210 22 -49 5 -142 14 -205 19 -63 5 -187 16 -275 24 -88 8
-214 20 -280 26 -66 6 -160 15 -210 21 -49 5 -142 14 -205 19 -63 6 -185 16
-270 24 -85 8 -213 20 -285 26 -71 6 -161 15 -200 20 -38 5 -113 12 -165 15
-52 3 -126 10 -165 16 -38 5 -126 14 -195 19 -162 12 -332 28 -445 41 -49 5
-139 14 -200 19 -216 17 -451 39 -480 45 -16 3 -86 10 -155 15 -69 5 -195 16
-280 24 -85 8 -213 20 -285 25 -71 6 -164 16 -205 21 -41 5 -115 12 -165 15
-49 3 -124 10 -165 16 -41 5 -129 14 -195 19 -66 5 -190 16 -275 24 -85 8
-209 19 -275 25 -66 6 -158 15 -205 21 -47 5 -128 12 -180 16 -87 5 -194 17
-263 30 -46 9 -31 30 30 42 58 12 133 29 248 58 33 8 87 21 120 29 57 13 115
27 250 61 33 8 87 21 120 29 33 7 87 20 120 29 33 8 92 22 130 31 82 20 169
41 245 60 30 7 87 21 125 30 74 17 142 34 240 59 33 8 92 22 130 31 72 17 141
34 243 59 31 8 89 22 127 31 74 17 142 34 240 59 33 8 92 22 130 31 74 17 142
34 240 59 33 8 92 22 130 31 80 19 154 37 240 58 33 8 92 23 130 32 39 9 95
22 125 30 30 7 87 21 125 30 130 31 190 46 245 59 30 8 87 22 125 31 130 31
190 46 245 59 30 8 87 22 125 31 128 31 190 46 250 61 33 8 87 21 120 29 57
13 115 27 250 61 33 8 87 21 120 29 57 13 115 27 250 61 33 8 87 21 120 29 33
7 87 20 120 29 33 8 92 22 130 31 72 17 141 34 243 59 31 8 89 22 127 31 96
23 179 43 245 59 30 8 87 22 125 31 128 31 190 46 250 61 33 8 87 21 120 29
33 7 87 20 120 29 33 8 92 22 130 31 88 21 173 42 250 61 148 38 156 39 173
22z m-7643 -2333 c121 -7 233 -24 240 -35 4 -6 8 -1635 5 -2088 0 -15 -36 -30
-115 -48 -33 -7 -89 -20 -125 -29 -107 -27 -169 -37 -185 -31 -13 5 -15 142
-15 1114 0 873 3 1111 13 1121 7 8 25 10 47 7 19 -3 80 -8 135 -11z m819 -75
c34 -6 117 -14 185 -18 103 -7 126 -12 137 -27 12 -16 14 -173 14 -889 0 -479
-3 -881 -6 -893 -4 -16 -18 -25 -53 -33 -25 -6 -73 -17 -106 -26 -258 -64
-286 -69 -296 -53 -10 16 -13 1908 -3 1933 7 19 41 20 128 6z m1101 -103 l120
-12 3 -751 c2 -594 -1 -754 -10 -761 -7 -6 -35 -15 -63 -21 -55 -12 -149 -35
-240 -58 -33 -9 -78 -17 -100 -17 l-40 -2 -3 810 c-1 446 0 816 3 824 6 15 90
12 330 -12z m830 -77 c44 -5 106 -12 138 -16 l57 -5 0 -599 0 -599 -22 -12
c-12 -6 -49 -18 -82 -26 -211 -48 -299 -70 -320 -78 -11 -5 -21 -3 -27 6 -10
16 -12 1332 -2 1343 8 8 136 1 258 -14z m845 -81 c74 -5 160 -13 190 -17 l55
-7 3 -452 2 -452 -42 -12 c-24 -7 -70 -18 -103 -26 -33 -7 -87 -21 -120 -29
-105 -26 -165 -36 -180 -30 -13 5 -15 73 -15 514 0 368 3 511 11 519 7 7 24
10 38 7 14 -2 87 -9 161 -15z m890 -80 c135 -10 249 -24 257 -33 6 -6 3 -589
-3 -595 -6 -6 -57 -20 -169 -46 -33 -7 -89 -21 -125 -30 -36 -10 -86 -19 -112
-22 l-48 -5 0 364 c0 384 1 396 45 383 11 -3 81 -10 155 -16z m851 -79 c30 -5
114 -14 188 -18 113 -7 136 -11 147 -27 19 -25 20 -258 2 -272 -14 -10 -68
-27 -138 -44 -25 -5 -70 -16 -100 -23 -173 -42 -203 -47 -212 -34 -9 15 -11
388 -2 412 7 19 38 20 115 6z m991 -91 c162 -25 178 -35 86 -56 -29 -7 -82
-19 -118 -28 -171 -42 -180 -41 -180 25 0 65 5 70 76 70 35 0 96 -5 136 -11z
m1322 -335 c9 -23 7 -2147 -2 -2161 -9 -15 -52 -32 -122 -48 -111 -26 -294
-71 -370 -89 -30 -8 -86 -22 -125 -31 -128 -31 -190 -46 -250 -61 -33 -8 -87
-21 -120 -29 -58 -13 -130 -31 -245 -59 -30 -8 -86 -22 -125 -31 -130 -31
-190 -46 -245 -59 -30 -8 -86 -22 -125 -31 -130 -31 -190 -46 -245 -59 -30 -8
-86 -22 -125 -31 -130 -31 -190 -46 -245 -59 -30 -8 -86 -22 -125 -31 -130
-31 -190 -46 -245 -59 -30 -8 -86 -22 -125 -31 -130 -31 -190 -46 -245 -59
-30 -8 -86 -22 -125 -31 -130 -31 -190 -46 -245 -59 -30 -8 -86 -22 -125 -31
-130 -31 -190 -46 -245 -59 -30 -8 -86 -22 -125 -31 -128 -31 -190 -46 -250
-61 -33 -8 -87 -21 -120 -29 -58 -13 -130 -31 -245 -59 -30 -8 -86 -22 -125
-31 -130 -31 -190 -46 -245 -59 -30 -8 -86 -22 -125 -31 -130 -31 -190 -46
-245 -59 -30 -8 -86 -22 -125 -31 -130 -31 -190 -46 -245 -59 -30 -8 -86 -22
-125 -31 -130 -31 -190 -46 -245 -59 -30 -8 -86 -22 -125 -31 -130 -31 -190
-46 -245 -59 -30 -8 -86 -22 -125 -31 -130 -31 -190 -46 -245 -59 -30 -8 -86
-22 -125 -31 -130 -31 -190 -46 -245 -59 -30 -8 -86 -22 -125 -31 -128 -31
-190 -46 -250 -61 -71 -17 -160 -38 -232 -55 -29 -6 -59 -9 -68 -6 -13 6 -15
120 -13 1099 l3 1093 39 13 c36 12 106 29 216 52 25 6 56 14 70 19 14 4 61 16
105 26 44 9 103 23 130 31 54 14 232 58 330 80 33 8 87 21 120 29 33 9 87 22
120 29 33 8 87 21 120 29 33 8 92 23 130 32 130 31 190 46 245 59 30 8 87 22
125 31 128 31 190 46 250 61 33 8 87 21 120 29 57 13 115 27 250 61 33 8 87
21 120 28 66 16 157 38 250 61 33 9 87 22 120 30 33 7 87 20 120 29 33 8 92
22 130 31 94 22 178 43 250 61 33 8 87 21 120 29 58 13 130 31 245 59 30 8 87
22 125 31 39 9 95 23 125 30 30 8 87 21 125 30 74 17 142 34 240 59 33 8 92
22 130 31 39 9 95 23 125 30 30 8 82 21 115 29 33 8 92 22 130 31 74 17 142
34 240 59 33 8 92 22 130 31 74 17 142 34 240 59 33 8 92 22 130 31 80 19 154
37 240 58 33 8 92 23 130 32 78 18 150 36 240 59 33 8 92 22 130 31 73 17 136
33 245 60 36 9 92 22 125 30 33 7 87 20 120 28 33 8 92 23 130 32 130 31 190
46 245 59 30 8 87 22 125 31 128 31 190 46 250 61 33 8 88 20 123 28 34 7 65
16 69 19 14 14 81 7 87 -9z"/>
</g>
</svg>
